<svg width="30" height="37" viewBox="0 0 34 37" fill="none" xmlns="http://www.w3.org/2000/svg">
    <path d="M13.506 5.70842C13.0652 5.70842 12.6424 5.89872 12.3307 6.23747C12.019 6.57622 11.8439 7.03567 11.8439 7.51473V8.41789C11.8439 8.65742 11.7563 8.88715 11.6005 9.05652C11.4446 9.2259 11.2332 9.32105 11.0128 9.32105C10.7924 9.32105 10.581 9.2259 10.4252 9.05652C10.2693 8.88715 10.1817 8.65742 10.1817 8.41789V7.51473C10.1817 6.5566 10.532 5.63772 11.1554 4.96022C11.7788 4.28272 12.6244 3.9021 13.506 3.9021H14.3371C14.5575 3.9021 14.7689 3.99725 14.9247 4.16663C15.0806 4.336 15.1681 4.56573 15.1681 4.80526C15.1681 5.04479 15.0806 5.27451 14.9247 5.44389C14.7689 5.61326 14.5575 5.70842 14.3371 5.70842H13.506ZM11.8439 21.9653C11.8439 22.4443 12.019 22.9038 12.3307 23.2425C12.6424 23.5813 13.0652 23.7716 13.506 23.7716H14.3371C14.5575 23.7716 14.7689 23.8667 14.9247 24.0361C15.0806 24.2055 15.1681 24.4352 15.1681 24.6747C15.1681 24.9143 15.0806 25.144 14.9247 25.3134C14.7689 25.4828 14.5575 25.5779 14.3371 25.5779H13.506C12.6244 25.5779 11.7788 25.1973 11.1554 24.5198C10.532 23.8423 10.1817 22.9234 10.1817 21.9653V21.0621C10.1817 20.8226 10.2693 20.5929 10.4252 20.4235C10.581 20.2541 10.7924 20.159 11.0128 20.159C11.2332 20.159 11.4446 20.2541 11.6005 20.4235C11.7563 20.5929 11.8439 20.8226 11.8439 21.0621V21.9653ZM11.8439 12.0305C11.8439 11.791 11.7563 11.5613 11.6005 11.3919C11.4446 11.2225 11.2332 11.1274 11.0128 11.1274C10.7924 11.1274 10.581 11.2225 10.4252 11.3919C10.2693 11.5613 10.1817 11.791 10.1817 12.0305V17.4495C10.1817 17.689 10.2693 17.9187 10.4252 18.0881C10.581 18.2575 10.7924 18.3526 11.0128 18.3526C11.2332 18.3526 11.4446 18.2575 11.6005 18.0881C11.7563 17.9187 11.8439 17.689 11.8439 17.4495V12.0305ZM26.8031 5.70842C27.2439 5.70842 27.6667 5.89872 27.9784 6.23747C28.2901 6.57622 28.4652 7.03567 28.4652 7.51473V8.41789C28.4652 8.65742 28.5528 8.88715 28.7086 9.05652C28.8645 9.2259 29.0759 9.32105 29.2963 9.32105C29.5167 9.32105 29.7281 9.2259 29.8839 9.05652C30.0398 8.88715 30.1273 8.65742 30.1273 8.41789V7.51473C30.1273 6.5566 29.7771 5.63772 29.1537 4.96022C28.5303 4.28272 27.6847 3.9021 26.8031 3.9021H25.972C25.7516 3.9021 25.5402 3.99725 25.3844 4.16663C25.2285 4.336 25.1409 4.56573 25.1409 4.80526C25.1409 5.04479 25.2285 5.27451 25.3844 5.44389C25.5402 5.61326 25.7516 5.70842 25.972 5.70842H26.8031ZM26.8031 23.7716C27.2439 23.7716 27.6667 23.5813 27.9784 23.2425C28.2901 22.9038 28.4652 22.4443 28.4652 21.9653V21.0621C28.4652 20.8226 28.5528 20.5929 28.7086 20.4235C28.8645 20.2541 29.0759 20.159 29.2963 20.159C29.5167 20.159 29.7281 20.2541 29.8839 20.4235C30.0398 20.5929 30.1273 20.8226 30.1273 21.0621V21.9653C30.1273 22.9234 29.7771 23.8423 29.1537 24.5198C28.5303 25.1973 27.6847 25.5779 26.8031 25.5779H25.972C25.7516 25.5779 25.5402 25.4828 25.3844 25.3134C25.2285 25.144 25.1409 24.9143 25.1409 24.6747C25.1409 24.4352 25.2285 24.2055 25.3844 24.0361C25.5402 23.8667 25.7516 23.7716 25.972 23.7716H26.8031ZM29.2963 11.1274C29.0759 11.1274 28.8645 11.2225 28.7086 11.3919C28.5528 11.5613 28.4652 11.791 28.4652 12.0305V17.4495C28.4652 17.689 28.5528 17.9187 28.7086 18.0881C28.8645 18.2575 29.0759 18.3526 29.2963 18.3526C29.5167 18.3526 29.7281 18.2575 29.8839 18.0881C30.0398 17.9187 30.1273 17.689 30.1273 17.4495V12.0305C30.1273 11.791 30.0398 11.5613 29.8839 11.3919C29.7281 11.2225 29.5167 11.1274 29.2963 11.1274ZM17.6613 3.9021C17.4409 3.9021 17.2295 3.99725 17.0737 4.16663C16.9178 4.336 16.8303 4.56573 16.8303 4.80526C16.8303 5.04479 16.9178 5.27451 17.0737 5.44389C17.2295 5.61326 17.4409 5.70842 17.6613 5.70842H22.6477C22.8682 5.70842 23.0795 5.61326 23.2354 5.44389C23.3913 5.27451 23.4788 5.04479 23.4788 4.80526C23.4788 4.56573 23.3913 4.336 23.2354 4.16663C23.0795 3.99725 22.8682 3.9021 22.6477 3.9021H17.6613ZM16.8303 24.6747C16.8303 24.4352 16.9178 24.2055 17.0737 24.0361C17.2295 23.8667 17.4409 23.7716 17.6613 23.7716H22.6477C22.8682 23.7716 23.0795 23.8667 23.2354 24.0361C23.3913 24.2055 23.4788 24.4352 23.4788 24.6747C23.4788 24.9143 23.3913 25.144 23.2354 25.3134C23.0795 25.4828 22.8682 25.5779 22.6477 25.5779H17.6613C17.4409 25.5779 17.2295 25.4828 17.0737 25.3134C16.9178 25.144 16.8303 24.9143 16.8303 24.6747ZM6.85747 11.1274H8.5196V12.9337H6.85747C6.41665 12.9337 5.99388 13.124 5.68216 13.4627C5.37045 13.8015 5.19534 14.2609 5.19534 14.74V26.4811C5.19534 27.6787 5.63313 28.8273 6.41241 29.6742C7.19168 30.5211 8.24861 30.9969 9.35067 30.9969H20.1545C20.5954 30.9969 21.0181 30.8065 21.3298 30.4678C21.6416 30.129 21.8167 29.6696 21.8167 29.1905V27.3842H23.4788V29.1905C23.4788 30.1487 23.1286 31.0676 22.5052 31.7451C21.8817 32.4226 21.0362 32.8032 20.1545 32.8032H9.35067C7.80778 32.8032 6.32809 32.1371 5.2371 30.9515C4.14611 29.7658 3.5332 28.1578 3.5332 26.4811V14.74C3.5332 13.7819 3.88344 12.863 4.50686 12.1855C5.13028 11.508 5.97582 11.1274 6.85747 11.1274Z"
          fill="white"/>
</svg>
