<svg
        width="31"
        height="24"
        viewBox="0 0 31 24"
        fill="none"
        xmlns="http://www.w3.org/2000/svg"
>
    <path d="M22.347 9.99894H29.9652C30.0573 9.99898 30.1474 10.0261 30.2251 10.0771C30.3027 10.1281 30.3647 10.2008 30.4037 10.2869C30.4427 10.3729 30.4572 10.4686 30.4455 10.5629C30.4337 10.6571 30.3961 10.7459 30.3372 10.8189L26.5281 15.5385C26.4827 15.5948 26.4258 15.6401 26.3615 15.6711C26.2972 15.7022 26.2271 15.7183 26.1561 15.7183C26.0851 15.7183 26.015 15.7022 25.9507 15.6711C25.8865 15.6401 25.8296 15.5948 25.7841 15.5385L21.975 10.8189C21.9161 10.7459 21.8785 10.6571 21.8668 10.5629C21.855 10.4686 21.8695 10.3729 21.9085 10.2869C21.9475 10.2008 22.0095 10.1281 22.0872 10.0771C22.1648 10.0261 22.2549 9.99898 22.347 9.99894ZM1.03449 13.9986H8.65274C8.74478 13.9986 8.8349 13.9715 8.91255 13.9205C8.99021 13.8695 9.05218 13.7967 9.09121 13.7107C9.13025 13.6247 9.14472 13.5289 9.13295 13.4347C9.12118 13.3405 9.08364 13.2517 9.02474 13.1787L5.21561 8.45906C5.17015 8.40279 5.11327 8.35753 5.04899 8.32646C4.9847 8.2954 4.91459 8.2793 4.84361 8.2793C4.77263 8.2793 4.70252 8.2954 4.63824 8.32646C4.57395 8.35753 4.51707 8.40279 4.47161 8.45906L0.662487 13.1787C0.603582 13.2517 0.566046 13.3405 0.554272 13.4347C0.542499 13.5289 0.556977 13.6247 0.596009 13.7107C0.635042 13.7967 0.697015 13.8695 0.77467 13.9205C0.852325 13.9715 0.942448 13.9986 1.03449 13.9986Z"
          fill="white"/>
    <path fill-rule="evenodd" clip-rule="evenodd"
          d="M15.4998 1.99958C12.4928 1.99958 9.80358 3.41348 8.0269 5.63531C7.94756 5.74145 7.84836 5.83004 7.73519 5.89581C7.62202 5.96158 7.49719 6.0032 7.36813 6.01817C7.23906 6.03315 7.1084 6.02119 6.9839 5.983C6.85941 5.94481 6.74363 5.88117 6.64344 5.79586C6.54325 5.71056 6.4607 5.60533 6.4007 5.48643C6.34071 5.36754 6.30448 5.23741 6.29419 5.10377C6.28389 4.97014 6.29974 4.83573 6.34078 4.70854C6.38182 4.58136 6.44721 4.46398 6.53308 4.36341C7.9517 2.5906 9.83379 1.27566 11.9555 0.575002C14.0772 -0.125657 16.3492 -0.182553 18.5014 0.411081C20.6535 1.00471 22.5951 2.22389 24.0954 3.92361C25.5956 5.62333 26.5913 7.73206 26.964 9.99899H24.9936C24.5463 7.74077 23.3571 5.71129 21.6272 4.25371C19.8974 2.79612 17.7329 1.99987 15.4998 1.99958ZM6.00608 13.9987C6.37287 15.8478 7.23901 17.5521 8.50444 18.9146C9.76988 20.2771 11.383 21.2423 13.1573 21.6987C14.9317 22.155 16.7949 22.0839 18.5318 21.4936C20.2687 20.9032 21.8083 19.8176 22.9728 18.3624C23.0521 18.2562 23.1513 18.1676 23.2645 18.1019C23.3776 18.0361 23.5025 17.9945 23.6315 17.9795C23.7606 17.9645 23.8913 17.9765 24.0158 18.0147C24.1403 18.0529 24.256 18.1165 24.3562 18.2018C24.4564 18.2871 24.539 18.3923 24.599 18.5112C24.659 18.6301 24.6952 18.7603 24.7055 18.8939C24.7158 19.0275 24.6999 19.1619 24.6589 19.2891C24.6178 19.4163 24.5525 19.5337 24.4666 19.6343C23.048 21.4071 21.1659 22.722 19.0442 23.4227C16.9225 24.1233 14.6504 24.1802 12.4983 23.5866C10.3462 22.993 8.40452 21.7738 6.90429 20.0741C5.40405 18.3743 4.40836 16.2656 4.03564 13.9987H6.00608Z"
          fill="white"/>
</svg>
