<svg width="24" height="24" viewBox="0 0 24 24" fill="none" xmlns="http://www.w3.org/2000/svg">
    <g clip-path="url(#clip0_1113_701)">
        <path d="M22.9727 0.916615C22.7524 0.773638 22.5061 0.675464 22.2479 0.627702C21.9896 0.579939 21.7245 0.583524 21.4676 0.638252C21.2108 0.69298 20.9672 0.797779 20.7509 0.946661C20.5345 1.09554 20.3496 1.28559 20.2067 1.50595L9.00006 18.7799L3.53473 13.7266C3.34191 13.5483 3.11585 13.4098 2.86948 13.3188C2.6231 13.2279 2.36123 13.1864 2.09881 13.1967C1.56883 13.2174 1.06881 13.4479 0.70873 13.8373C0.348654 14.2267 0.158025 14.7432 0.178779 15.2732C0.199533 15.8032 0.42997 16.3032 0.819396 16.6633L7.9954 23.2979C7.9954 23.2979 8.2014 23.4753 8.29673 23.5373C8.51705 23.6804 8.76341 23.7786 9.02173 23.8264C9.28005 23.8743 9.54525 23.8707 9.8022 23.816C10.0591 23.7612 10.3028 23.6564 10.5192 23.5075C10.7356 23.3585 10.9205 23.1684 11.0634 22.9479L23.5621 3.68262C23.705 3.46232 23.8032 3.21601 23.851 2.95776C23.8987 2.69951 23.8952 2.43439 23.8404 2.17752C23.7857 1.92066 23.6809 1.6771 23.532 1.46075C23.3831 1.2444 23.1931 1.0595 22.9727 0.916615Z"
              fill="#fff"/>
    </g>
    <defs>
        <clipPath id="clip0_1113_701">
            <rect width="24" height="24" rx="5" fill="white"/>
        </clipPath>
    </defs>
</svg>
